<svg width="51" height="47" viewBox="0 0 51 47" fill="none" xmlns="http://www.w3.org/2000/svg">
<path d="M42.946 17.6384C42.7697 17.1007 42.5934 16.5988 42.3818 16.1327C41.3946 13.7307 39.9137 11.5797 38.0802 9.78718C38.8206 4.62471 38.0802 1.36232 35.9293 0.322654C35.471 0.107551 35.0126 0 34.4837 0C32.5092 0 30.1115 1.57742 27.3613 4.66056C26.6208 4.58886 25.8804 4.51716 25.1399 4.51716C22.6718 4.51716 20.2388 5.01907 17.947 5.98703C13.0812 8.06636 9.30839 12.1892 7.58067 17.3158C2.64433 18.8215 0.035124 20.865 -0.000135581 23.3028C-0.0353951 25.7407 2.57381 27.82 7.47489 29.3616C7.65119 29.8993 7.82748 30.4012 8.03904 30.8673C9.02631 33.2693 10.5072 35.4203 12.3407 37.2128C11.6003 42.3753 12.3407 45.6377 14.4915 46.6773C14.9499 46.8924 15.4083 47 15.9372 47C17.9117 47 20.3094 45.4226 23.0244 42.3394C23.7648 42.447 24.5053 42.4828 25.2457 42.4828C27.7139 42.4828 30.1468 41.9809 32.4739 40.9771C37.3397 38.8978 41.1125 34.775 42.8755 29.6484C47.8118 28.1785 50.421 26.135 50.4563 23.6972C50.421 21.2952 47.8471 19.18 42.946 17.6384ZM48.0939 23.6972C48.0939 24.5217 46.8598 25.8124 43.5102 26.9954C43.9333 24.7727 43.9333 22.55 43.5807 20.3631C46.8951 21.582 48.0939 22.8726 48.0939 23.6972ZM30.041 5.19832C31.8392 3.36995 33.4259 2.33028 34.4484 2.33028C34.6247 2.33028 34.801 2.36613 34.9068 2.43783C35.6473 2.79634 36.2819 4.44546 35.9293 8.03051C34.1664 6.73989 32.1566 5.77193 30.041 5.19832ZM18.9342 17.8177C18.5464 18.5706 18.1938 19.2876 17.8765 20.0046C15.5493 25.0595 13.8216 30.0069 12.8343 34.4165C11.706 33.09 10.7893 31.6201 10.1194 29.971C8.70897 26.5652 8.46216 22.8726 9.3789 19.2876C12.1291 18.5706 15.4083 18.0686 18.9342 17.8177ZM10.2957 16.6346C11.9881 12.7986 15.0204 9.82304 18.8285 8.17391C20.8383 7.3135 22.9538 6.8833 25.1399 6.8833C25.281 6.8833 25.422 6.8833 25.5278 6.8833C23.7295 9.28528 21.896 12.1892 20.1683 15.3799C16.6071 15.595 13.2222 16.0252 10.2957 16.6346ZM25.281 15.2723C25.0694 15.2723 24.8578 15.2723 24.6463 15.2723C24.0821 15.2723 23.4827 15.2723 22.8481 15.3082C24.611 12.1892 26.4798 9.39283 28.278 7.20595C33.6375 8.24561 38.0449 11.8307 40.1958 16.8856C35.8941 15.8818 30.7462 15.3082 25.281 15.2723ZM19.9568 21.0084C20.4857 19.897 21.0146 18.7857 21.5787 17.6743C22.566 17.6384 23.5532 17.6026 24.5053 17.6026C24.7521 17.6026 24.9989 17.6026 25.2457 17.6026C31.134 17.6384 36.7403 18.3196 41.0772 19.5385C42.9813 27.4256 38.9264 35.6712 31.5572 38.8261C29.5474 39.6865 27.3965 40.1167 25.2457 40.1167C21.4377 40.1167 17.7707 38.7544 14.8089 36.3166C15.6198 31.8711 17.4533 26.4218 19.9568 21.0084ZM20.3446 41.8017C18.5464 43.6301 16.9597 44.6697 15.9372 44.6697C15.7609 44.6697 15.5846 44.6339 15.4435 44.5622C14.7031 44.2037 14.0684 42.5545 14.421 38.9695C16.2193 40.2601 18.2291 41.2281 20.3446 41.8017ZM6.87548 20.0404C6.45236 22.2632 6.45236 24.4859 6.80496 26.6728C3.49056 25.418 2.29174 24.1274 2.29174 23.3028C2.29174 22.4783 3.52582 21.2235 6.87548 20.0404Z" fill="url(#paint0_linear_175_1716)"/>
<defs>
<linearGradient id="paint0_linear_175_1716" x1="-0.000135581" y1="23.5057" x2="50.3985" y2="23.5057" gradientUnits="userSpaceOnUse">
<stop stop-color="#ED1E79"/>
<stop offset="1" stop-color="#FF9E01"/>
</linearGradient>
</defs>
</svg>
